<?xml version="1.0" encoding="utf-8"?>
<!-- Generator: Adobe Illustrator 18.0.0, SVG Export Plug-In . SVG Version: 6.00 Build 0)  -->
<!DOCTYPE svg PUBLIC "-//W3C//DTD SVG 1.1//EN" "http://www.w3.org/Graphics/SVG/1.1/DTD/svg11.dtd" [
	<!ENTITY ns_extend "http://ns.adobe.com/Extensibility/1.0/">
	<!ENTITY ns_ai "http://ns.adobe.com/AdobeIllustrator/10.0/">
	<!ENTITY ns_graphs "http://ns.adobe.com/Graphs/1.0/">
	<!ENTITY ns_vars "http://ns.adobe.com/Variables/1.0/">
	<!ENTITY ns_imrep "http://ns.adobe.com/ImageReplacement/1.0/">
	<!ENTITY ns_sfw "http://ns.adobe.com/SaveForWeb/1.0/">
	<!ENTITY ns_custom "http://ns.adobe.com/GenericCustomNamespace/1.0/">
	<!ENTITY ns_adobe_xpath "http://ns.adobe.com/XPath/1.0/">
]>
<svg version="1.1" id="Layer_1" xmlns:x="&ns_extend;" xmlns:i="&ns_ai;" xmlns:graph="&ns_graphs;"
	 xmlns="http://www.w3.org/2000/svg" xmlns:xlink="http://www.w3.org/1999/xlink" x="0px" y="0px" viewBox="0 0 1426.3 1283"
	 enable-background="new 0 0 1426.3 1283" xml:space="preserve">
	<g i:extraneous="self">
		
			<image overflow="visible" width="5943" height="5346" xlink:href="VECTORS_MIDDLE_MUSCLES.png"  transform="matrix(0.24 0 0 0.24 -1.400981e-03 0.9974)">
		</image>
		<path id="outline" fill-rule="evenodd" clip-rule="evenodd" fill="none" d="M1220.8,781.5c-58.5-58-67.4-120.6-68-151
			c-0.7-33.5-1.2-78.1-4-109c0.1,20.1,0.8,37.7-1,95c-1.9,60.6-2.2,131.6,25,176c11,16.7,29,41.3,40,58c6.4,9,16.9,20,20,32
			c2.4,9.6-4.4,72.9-7,89c1.3,31.3-3.3,71-2.8,102.4c-10,9.1-20,20.7-36,29.5c-6.4,3.5-12.7,12.5-20.4,14c-8,1.5-17.4-4.6-26.8-6.9
			c-0.5-0.3-18.6,5.9-25-11c-17.8-3.6-12.5-19.7-13-20c-1.5-6.5,14.3-13.3,22-22c7.4-8.4,6.6-18.6,13-20c5.3-3.7,25.4,0.3,29-5
			c13.2-19.6-0.7-45.4-1-68c-0.9-73.4-58.9-134.5-96-179c7.3,8.8-49.1-44.5-79-115c-13.3-31.2-16.2-62.2-24-96c-0.3,0-33.7,19-34,19
			c-19.1,6.3-30.5,0.5-38-16c2.6-8.2,5.8-12.7,9-20c-9-15.3-79.8,3.2-95,9c-37.9,14.4-72.7,26.3-107,43c-27,13.2-70.1,33.4-61,28
			c-56.6,33.8-94.5,22.6-103,25c1.3,21.5-18.3,50.9-21,68c-0.3,55,3.3,86,3,141c1.3,21.8,17.1,56.8,12,72c-2.1,6.4-13.1,15.1-17,30
			c-4.7,18.2-2.9,43.7-12,64c-5.9,13.1-22.1,10.8-27,16c-12.1,12.8-11.4,17.5-25,16c-10.7-1.2-20.1,7.8-30.4-5.2
			c-15.2-1.8-22.9-23.4-12.6-28.8c10.3-5.4,19.1-21,28-29c9.2-8.3,22.2-8.8,28-21c10.1-21.2,4.5-11.6,5-43
			c0.8-46.2-16.1-89.2-24-147c-7.9-58.2-0.4-87.7-24-115c-35.4-41-55-69-55-69s-16.1-36.7-28-61c-21.2-43.3-18.5-67.6-25-102
			c0-0.7,0-1.3,0-2c-5.1-18.9-21.3-36.8-30-53c-6-14.7-12-29.3-18-44c-14.5-22.3-40.7-59.3-68.9-65.1c-24.1-5-73.3,5.6-75.1-12.2
			c-8,1.7-14.2,5.7-30.2,2.2C79.1,270,28,205.9,51.1,188.3c7.4-4,65.9-35.9,80.4-43.9c0.8-9.1,7.5-16.1,11.3-23
			c21-6.4,40-16.1,58-25c-0.6,0.3,63.9-46.6,122,35c16.8,23.6,43,41.3,60,65c12.2,17,39.4,58.9,52,72c23.1,24.1,48,31,48,31
			s77.1,27,181,23c29.7-5,62.3-9,92-14c82.4-10.6,133.6-10.6,153-12c36.8,2.4,81.1,0.3,113,11c32.4,10.9,67.3,24.4,95,43
			c21.2,14.2,38.4,31.6,51,54c34.8,61.9,4.5,144.3,15,252c1.6,16,9.7,32.5,16,49c19.8,51.5,54.2,92.2,103,114
			C1324.8,838.7,1277.3,837.5,1220.8,781.5z"/>
		<path id="Rhomboid_cervicus" fill-rule="evenodd" clip-rule="evenodd" fill="none" d="M283.4,119.8c0.8,0.3,14.1,13.3,43.4,41.8
			c25.2,25.2,52.2,49.8,74.2,78c17.1,22,34.1,42.2,56.6,58.8c6.6,4.9,14.1,10.1,22.8,13c-0.1,0.2-0.2,0.3-0.2,0.5
			c-0.9,0.6-1.8,1.1-2.6,1.7c0.2,0.2,0.3,0.3,0.5,0.5c0.2-0.2,0.3-0.3,0.5-0.5c0.8-0.6,1.6-1.1,2.4-1.7c22.3,8.8,37.2,11.2,38.4,13
			c2.9,4.3,1.6,13.4,0,18.2c-3.5,10.6-15.6,33.1-27.4,33.8c-5.5-2.3-8.6-7.6-12-12c-5.3-6.8-11.3-14.3-18.2-19.4
			c-11.8-8.6-22.8-6.5-23-6.5c-3.5-1-6.5-3.7-9.1-5.8c-10.5-8.4-18.2-22.3-25.4-33.8c-15.1-24.2-28.4-50-43.2-74.9
			c-8.2-13.9-16.1-28.4-25.7-41c3.5,3.8-32.2-35.4-54-58.1C282,123.4,282.7,121.6,283.4,119.8z"/>
		<path id="levator_anguli_scapulae_inferior" fill-rule="evenodd" clip-rule="evenodd" fill="none" d="M374.9,313
			c0.6,17.7,1.1,35.4,1.7,53c0.6,6.6,1.3,13.1,1.9,19.7c1.3,6.1,3.4,11.7,5,18.2c1.1,5.4,2.2,10.7,3.4,16.1
			c-8.4,19.8-16.8,39.7-25.2,59.5c-0.2-0.1-0.3-0.2-0.5-0.2c-1.7-12.3-3.4-24.6-5-37C362.4,399.2,368.6,356.1,374.9,313z"/>
		<path id="triceps" fill-rule="evenodd" clip-rule="evenodd" fill="none" d="M461.8,414c13.8,0.2,17.1,20,21.4,30.5
			c1,2.5,11.8,28.3,14.2,40.3c0.6,6.2,1.3,12.3,1.9,18.5c2.1,8.5,13.4,44,14.4,61c0.5,14.8-1.7,50-1.4,46.8
			c5.1,13.7,10,38.2,10.8,43c0.1,2-7.2,13.3-7.2,22.6c-2.3-4.9-15.7-16.3-21.6-17.3c-6.3-1-21.1,4.8-44.6-9.6
			c-18.6-11.4-33.9-29.9-47-46.8c-7.1-9.1-15.6-18-20.2-29.5c-1.3-3.3-7.8-39.5-10.3-53.5c0.1,0,0.2,0,0.2,0
			c22.3,8.2,43.3,16.2,63.1,26.4c-7.1-9.5-16-17.2-22.3-27.8c-5-8.4-11-25.8-12.5-32.6c-2.1-9.7,7.4-21.1,9.4-24
			C423.5,441.4,441,427.3,461.8,414z"/>
		<path id="pronator_teres" fill-rule="evenodd" clip-rule="evenodd" fill="none" d="M462,680.2c5.4,0.7,10.9,1.4,16.3,2.2
			c-9.9,43.4-2.9,103.4-1.7,112.6c-1.7,1.4-3.4,2.7-5,4.1c-0.2-0.1-0.3-0.2-0.5-0.2c-2.2-6.4-4.5-12.8-6.7-19.2
			C455.7,751.8,446.7,707.3,462,680.2z"/>
		<path id="extensor_digiti_lateralis" fill-rule="evenodd" clip-rule="evenodd" fill="none" d="M474.5,681.8
			c0.9,1.9,1.8,3.8,2.6,5.8c1.5,2,3.7,2.5,4.8,5c3.5,8.3,3.1,18.8,4.8,28.8c2.1,12,4.3,27.4,2.2,40.8c-1.4,8.5-4.2,24-2.6,33.6
			c3.3,44.7,14.1,118,13,109.4c4.9,25.7,6.7,56.5,1.4,83.8c-1.8,9.3-2.7,18.9-6,26.9c-4.9,11.9-22.3,9.8-30,18.7
			c-3.2,3.7-5.9,9.2-8.9,13.9c-1.7,2.6-3.1,5.2-5.5,6.5c-0.2,0-0.5,0-0.7,0c1.9-3.9,5.3-9.6,8.6-15.1c2.6-4.4,5.1-8.9,7.7-10.8
			c7.5-3.4,15-6.7,22.6-10.1c3.5-2.6,5.2-9.2,7-18.5c1.6-8.6,3.9-17.3,4.3-21.4c-2.1,11.4-7.3,28.7-13,33.1c-3.8,3-8.7,4.2-13.4,6.2
			c-5.5,2.4-11,8.1-14.4,12.7c-3.6,5-12.8,21.2-19,22.1c-0.7-0.7-0.8-0.7-1-2.2c4.2-4.7,8.3-9.4,12.5-14.2
			c4.4-5.8,9.8-14.4,15.6-18.7c5-3.8,11.5-4.8,16.1-7.7c5.5-3.6,11.7-21,12.2-30c-2.5,12.1-7.9,22-15.8,26.9
			c-6.5,3.4-10.7,4.2-16.1,6.2c-2.5,2-6.3,9-8.9,13.2c-3.9,6.1-8.7,14.7-14.4,19c-1.7,1.3-4.1,2.3-5,1.9c0.3-1-0.5-1.3,0-1.9
			c2.6-3.3,6.8-5.5,9.4-8.6c2.7-3.4,6.4-10.1,9.8-16.1c2.3-4,4.5-8.1,6.5-9.4c7.1-4.6,18.4-5.4,23.5-12
			c9.9-12.8,10.3-33.6,13.4-53.3c1.3-7.9-0.2-16.5-1.4-23.3c-0.8-6.9-6.9-57.9-9.1-76.6c-3.5-18.9-6.1-37-9.4-55.2
			c-2.4-13.8-0.9-28-3.1-42.5c-0.4-9.7-0.8-19.4-1.2-29C471.8,708.8,472,691.6,474.5,681.8z"/>
		<path id="extensor_carpi_radialis" fill-rule="evenodd" clip-rule="evenodd" fill="none" d="M435.6,655.2
			c13.5,0.2,25.3,9,28.3,19.7c-0.1,4-0.2,8-0.2,12c0.3,12.2,0.6,24.5,1,36.7c0.8,16.1,1.6,32.2,2.4,48.2c0.8,9.8,1.6,19.5,2.4,29.3
			c4.4,27.1,5.2,53.9,10.3,79.9c2.6,17.1,5.3,34.2,7.9,51.4c1.2,6,4.1,18.1,2.4,24.7c-0.1,0-0.2,0-0.2,0c-0.1-0.1-0.2-0.2-0.2-0.2
			c-2.6-12.1-5.3-24.2-7.9-36.2c-3.9-21-7.8-41.9-11.8-62.9c-8.3-38-10.3-78.7-18.7-117.1c-3.8-19.1-7.5-38.2-11.3-57.4
			C438.3,676.2,434.3,662.9,435.6,655.2z"/>
		<path id="latissimus_dorsi" fill-rule="evenodd" clip-rule="evenodd" fill="none" d="M887.8,316.3c16.1,11.8-1.9,36.1-8.9,45.1
			c-13.1,16.9-30.2,31.5-47,44.6c-6.8,5.4-13.6,10.7-20.4,16.1c-11.3,1.9-22.6,3.8-33.8,5.8c3.4,4.4,6.7,8.8,10.1,13.2
			c0,0.1,0,0.2,0,0.2c1.4,0-41.5,5.5-73.4,18c-42.6,16.6-105,50.4-97,46.1c-24.5,15.4-81.9,65.1-89,70.8c-6.1,4.9-14.4,10.7-18,18
			c-0.9-1.1-26.7,13.4-82.3,22.6c-3.3,0.5-23,1.4-24.7-0.2c-5.4-7.3-6.8-18.3-10.3-27.4c-2.4-5.1-4.8-10.2-7.2-15.4
			c5.8-0.9,10.8-7.1,13.9-11c63.1-85.8,67.1-109.3,74.6-127.4c4.6-12.6,9.1-25.3,13.7-37.9c3.6-11.3,7.2-22.6,10.8-33.8
			c-5.7,1.6,71.2-19.5,115.4-31.2c8.6,1.8,30,2.4,51.4-0.7c31-4.5,82.7-13.4,122.4-18.5C879.8,301.3,883.3,313,887.8,316.3z"/>
		<path id="iliocostalis" fill-rule="evenodd" clip-rule="evenodd" fill="none" d="M990.5,307.9c-15.1,2.3-34.3,11.8-39.4,24.2
			c-7.5,18.3-0.6,51.1,2.2,69.1c-0.3-0.1-58.5-12.6-85.7-22.1c-6.4-2.3-21.8-9.1-23.8-9.6c3.5,0.9-54.1-3.3-93.1-4.1
			c-8.3-10.6-29.6-27.7-53.8-35.8c-0.6-0.2-1.3-0.1-1-0.7c69-15.8,123.2-18.9,193-22.3C945.2,305.1,965.5,306.8,990.5,307.9z"/>
		<path id="gluteus_medius" fill-rule="evenodd" clip-rule="evenodd" fill="none" d="M988.3,309.6c32.1-0.6,63.5,21.4,73,43.7
			c4.3,10.2,4.7,22.9,7.4,34.8c2.3,9.1,8,29.1,8.4,30.2c-1.7,5-10.7,16.4-17,16.6c-1.4-0.8-8.4-21.3-14.6-25.9
			c-10.7-7.9-25.6-11.5-37-18.5c2,1.4-47.5-31.8-75.4-45.8c0.1-0.2,0.2-0.5,0.2-0.7c4-4.9,6.6-14.4,39.1-28.6
			C977.8,313.4,983,311.5,988.3,309.6z"/>
		<path id="gluteus_superficialis" fill-rule="evenodd" clip-rule="evenodd" fill="none" d="M1058.6,344.2c0.2,0,21.7,3.1,30.2,13.7
			c1.6,1.8,3.2,3.7,4.8,5.5c8.5,6.4,19.7,4.3,17.5,20.6c0.4,2.2-11.8,17.5-15.4,20.6c-8.3,7.2-17.6,18.5-24,27.6
			c-3.3,4.7-3.4,7.4-7.4,11.3c-0.4,0-2.2,1.7-2.6,1.7c-3.5-12.5,10.2-34.2,6-61C1066.2,375.4,1058.9,349.8,1058.6,344.2z"/>
		<path id="rectus_femoris" fill-rule="evenodd" clip-rule="evenodd" fill="none" d="M1024.8,412.8c0,0-44,69.7-37.4,138.5
			c4.6,48.3,31.2,117.6,31.2,117.6s6.9,17.1,2.4-4.8c-6.1-29.6-21.6-93.6-18.2-134.2c4.5-55.2,38.9-105.4,38.9-105.4L1024.8,412.8z"
			/>
		<path id="quadriceps_femoris" fill-rule="evenodd" clip-rule="evenodd" fill="none" d="M1072.3,440.2c0,0-5.4,147.5-44.2,217.4
			c-8,14.4,20.9,69.4,20.9,69.4l-3.6,5.5c0,0-26.8-52-26.9-62.9c-0.1-10.9-35-140.3-5.5-185.3c29.5-45,37.2-54,37.2-54l9.4,13.7
			L1072.3,440.2z"/>
		<path id="semitendonous" fill-rule="evenodd" clip-rule="evenodd" fill="none" d="M1131.4,419.1c27.6,2.3,28.6,33.5,23,58.7
			c-4.8,21.7-7.9,46.8-13.4,68.6c-4.2,16.5-8.8,33.3-13.2,49c-4.7,26.4-9.4,52.8-14.2,79.2c-7.8,54.2-11,79.1-12.7,80.2
			c-5.2-2.3-11.6-19-14.9-26.4c-0.5-2.3,16.9-56.5,25.7-96.2c2.8-12.8,3.4-26.3,5.5-39.8c-0.7-53.5,0.8-90.2,1.7-115
			C1120.9,417.6,1125.3,424.3,1131.4,419.1z"/>
		<path id="Tibialis_cranialis" fill-rule="evenodd" clip-rule="evenodd" fill="none" d="M1066.1,723.6c22.4,0,26.6,15.6,33.4,31.2
			c6.1,13.4,12.2,26.9,18.2,40.3c21.1,47.7,54.4,90.6,66,117.6c2.7,6.9,1.3,16.7,2.6,24.5c3.9,23.1,5.2,57.5,0.7,81.4
			c-0.1,0-0.2,0-0.2,0c-4.4-13.3-6.3-45.8-7.7-98.9c-5.2-17.5-19.5-33.3-29.3-47c-33.8-47.2-98.4-130.4-95.3-126.2
			c-2.7-4.7-2.9-13.7,0.2-18C1057.4,724.9,1061.6,725.4,1066.1,723.6z"/>
		<path id="flexor_digitorum_superficialis" fill-rule="evenodd" clip-rule="evenodd" fill="none" d="M1080.5,698.9
			c3.3,1.1,11.3,6.4,13.2,9.6c-12.8-20.8,23.4,32,47.3,83c19.4,31.3,36.3,61.6,45.1,76.8c5.7,9.8,10.7,20.3,15.4,31
			c3.4,7.8,7.8,15.8,9.6,25.2c0.5-30.1-3,63.4-2.6,80.9c-1.8,11.2-1.7,21.9-4.1,31.4c-1.4,5.4-2,11.1-4.6,15.4
			c-3.2,5.2-10.2,5.7-15.4,8.9c-4.2,3-8.5,6.1-12.7,9.1c-6.7,5.1-13.4,10.2-20.2,15.4c-1.9,1.4-5.1,5.8-8.2,4.8c0.2,0,0.3,0,0.5,0
			c11.1-11.6,25-20.5,36-32.2c0-0.2,0-0.5,0-0.7c-0.2-0.1-0.3-0.2-0.5-0.2c-10.6,6.6-21.3,13.3-31.9,19.9c-3.7,2.3-7.8,6.8-13,7.2
			c0-0.1,0-0.2,0-0.2c0.3-0.4,0.6-0.8,1-1.2c4.6-3.8,9.3-7.5,13.9-11.3c7.9-5.2,15.8-10.4,23.8-15.6c-11.8,4.4-22.6,10.3-33.6,15.8
			c-2.8,1.4-8.6,6.6-12.7,5c0.2,0,0.3,0,0.5,0c12.3-8.5,23.9-18.3,39.6-23.3c11.6-3.7,24.1,0.4,28.8-11c4.3-10.5,2.9-24.1,5-37.2
			c0.1-5.3,5.5-71.5,1.4-85.7c-7.1-25.2-21.1-44.4-33.6-64.3c-14.8-23.8-29.8-47-44.6-70.6c-12.1-7-18.7-14.3-25.4-23.8
			c-6.2-8.8-27-35.9-30.2-52.1C1067.2,704,1074.4,701.9,1080.5,698.9z"/>
		<path id="soleus" fill-rule="evenodd" clip-rule="evenodd" fill="none" d="M1066.3,662.2c28.5-7,57.9,70.8,73.4,107.5
			c4.6,11.8,9.3,23.7,13.9,35.5c-1-1.4,16.8,24.1,26.2,38.4c7.4,11.8,15.1,23.5,22.6,35.5c3.1,5,9.1,11.4,9.8,18
			c-0.1,0.1-0.2,0.2-0.2,0.2c-0.3,0-0.6,0-1,0c-24.2-16.2-35-42.5-50.4-67.2C1095.4,721.9,1074.1,690.9,1066.3,662.2z"/>
	</g>
</svg>
