<?xml version="1.0" encoding="utf-8"?>
<!-- Generator: Adobe Illustrator 18.0.0, SVG Export Plug-In . SVG Version: 6.00 Build 0)  -->
<!DOCTYPE svg PUBLIC "-//W3C//DTD SVG 1.1//EN" "http://www.w3.org/Graphics/SVG/1.1/DTD/svg11.dtd" [
	<!ENTITY ns_extend "http://ns.adobe.com/Extensibility/1.0/">
	<!ENTITY ns_ai "http://ns.adobe.com/AdobeIllustrator/10.0/">
	<!ENTITY ns_graphs "http://ns.adobe.com/Graphs/1.0/">
	<!ENTITY ns_vars "http://ns.adobe.com/Variables/1.0/">
	<!ENTITY ns_imrep "http://ns.adobe.com/ImageReplacement/1.0/">
	<!ENTITY ns_sfw "http://ns.adobe.com/SaveForWeb/1.0/">
	<!ENTITY ns_custom "http://ns.adobe.com/GenericCustomNamespace/1.0/">
	<!ENTITY ns_adobe_xpath "http://ns.adobe.com/XPath/1.0/">
]>
<svg version="1.1" id="Layer_1" xmlns:x="&ns_extend;" xmlns:i="&ns_ai;" xmlns:graph="&ns_graphs;"
	 xmlns="http://www.w3.org/2000/svg" xmlns:xlink="http://www.w3.org/1999/xlink" x="0px" y="0px" viewBox="0 0 1447 1179.1"
	 enable-background="new 0 0 1447 1179.1" xml:space="preserve">
	<g i:extraneous="self">
		<path id="zygomaticus" fill-rule="evenodd" clip-rule="evenodd" fill="none" d="M298.1,108c0.6,0.1,1.1,0.2,1.7,0.2
			c-0.2,0.2-0.3,0.5-0.5,0.7c-4.8,1.9-8.6,6.1-12.5,9.1c-19.3,15.3-31.5,37.5-46.6,57.1c-5.6,7.3-13,12-19.9,18
			c-6.6,5.7-12.1,14.5-16.8,22.1c-3.9-1.7-7.4-3.6-10.6-6c0-0.4,0-0.8,0-1.2c2.1-4.1,7.8-6.8,11.3-9.6c2.7-3.2,5.4-6.4,8.2-9.6
			c5.4-5.4,10.7-10.7,16.1-16.1c8.1-10,15.3-21.2,23.3-31.4c3.5-4.5,8.3-7.9,11.8-12.2c4.1-5.3,8.2-10.6,12.2-15.8
			C283.2,111.5,290.6,109.8,298.1,108z"/>
		<path id="orbicularis_orbis" fill-rule="evenodd" clip-rule="evenodd" fill="none" d="M227.3,83c5.6,0.2,7.9,3.8,10.3,7.2
			c3.3,4.5,7.2,9.9,8.4,16.3c2.7,13.8-9,33.9-23.3,31.4c-6.3-1.1-14.5-2-17.3-6.7c-1.2-2-1.4-5.8-1-8.6c0.2-3.4,0.3-6.9,0.5-10.3
			c1.3-5.6,4.7-9.4,6.7-14.2c1.8-4.2,2.2-8.8,5.5-11.3C220,84.8,223.7,84.7,227.3,83z"/>
		<path id="orbicularis_orbis_1_" fill-rule="evenodd" clip-rule="evenodd" fill="none" d="M229.8,100c1.2,2.6,4.1,5.6,4.7,9.2
			c1.1,7.7-7.2,18.8-10.9,17.4c-2.6-0.9-5.3-1.2-8.3-2.3c-1.1-0.4,0.1-4.2,0.2-5.8c0.1-1.9,1.1-3.1,1.2-5c0.5-3.1,3.5-4.1,4.3-6.7
			c0.8-2.3,1.5-8.2,2.9-9.6C226.6,94.6,228,96,229.8,100z"/>
		<path id="sternohyoideus" fill="none" d="M316.8,213.6c7.6,0.5,10.7,9.9,13.2,15.6c7.6,17.3,19,58.1,19.4,59.8
			c4.9,13.9,9.8,27.8,14.6,41.8c9.7,25.1,18.6,51.5,25.4,79.2c1.8,7.1,0.2,16.3,1.4,24.2c2.5,15.7,2.7,30.9,6.7,44.6
			c8.8,29.9,23.2,68,31.2,82.6c-0.2-0.1-0.3-0.2-0.5-0.2c-8.6-12.4-29.3-46.4-39.8-79.7c-3.4-10.8-4.6-22.3-6.7-35
			c-2.4-14.1-1.2-28.4-4.3-40.8c-3.4-13.4-9.3-25.6-14.4-37.7c-7.5-17.9-15-35.8-22.6-53.8c-8.4-19.4-24.6-63.2-25.2-64.3
			c-3-5.7-13.3-19.5-12-26.9C304,222.2,312.3,216.6,316.8,213.6z"/>
		<path id="sternomastoideus" fill-rule="evenodd" clip-rule="evenodd" fill="none" d="M338.2,81.1c10.2-0.2,17.8,3.8,25.2,7
			c4.2,38.5,8.5,77,12.7,115.4c3.4,31.9,6.7,63.8,10.1,95.8c2.2,22.2,4.5,44.5,6.7,66.7c1.3,13.5,2.6,27,3.8,40.6
			c2.1,23.8,4.2,47.7,6.2,71.5c-0.1,0-0.2,0-0.2,0c-2.1-9-4.2-18.1-6.2-27.1c-3.7-14.3-6.2-28.7-10.1-42.5
			c-6.2-22.4-11.5-44-18.2-65.5c-15.5-49-32.9-95.9-48.5-145.7c-4.8-15.5-7.8-30.9-11.3-47.8c-1.4-6.8-3.7-17.1-1.9-25.4
			c2.4-11.3,11.3-17.5,17-25.7C328.2,91.9,330.9,85.1,338.2,81.1z"/>
		<path id="bracheocephalis" fill-rule="evenodd" clip-rule="evenodd" fill="none" d="M363.4,88.6c1.8,1.7,3.7,3.4,5.5,5
			c7.1,5.7,12.9,13,19.9,18.7c6.4,5.2,13,11.6,18.2,18c5.5,5.8,11,11.7,16.6,17.5c12.6,15.9,25.1,32,36.7,49
			c-14.3,45.6-23.5,93.5-35.5,141.4c-3.3,16.5-6.6,33-9.8,49.4c-2.8,12.3-7,34.7-4.6,49c0.6,3.4-0.2,22.5-0.2,22.6
			c0,0.2,0,0.3,0,0.5c-0.1,0-0.2,0-0.2,0c0-0.6,0-1.3,0-1.9c-8.5,0-10.2,9.7-12.7,16.1c-0.9-3.9-1.8-7.8-2.6-11.8
			c-0.4-9-0.8-17.9-1.2-26.9c-1.4-19.1-2.7-38.2-4.1-57.4C380.6,281.4,372,185,363.4,88.6z"/>
		<path id="lower_trapezius" fill-rule="evenodd" clip-rule="evenodd" fill="none" d="M541.7,271.4c11.9,2.4,23.8,4.8,35.8,7.2
			c30.9,6.8,64.1,10.3,97.2,14.9c0,0.1,0,0.2,0,0.2c-18.1,4.8-36.2,9.6-54.2,14.4c-32.9,9.7-67.8,15.7-98.2,28.1
			c-43.5,17.7-69.5,34.8-67.9,33.8c-6.5,8.3,38.5-51.8,52.3-68.2C516.3,289.9,530.1,281.6,541.7,271.4z"/>
		<path id="upper_trapezius" fill-rule="evenodd" clip-rule="evenodd" fill="none" d="M460.1,196.6c-10.5-12.4,34.5,41.8,55.9,64.6
			c8.1,8.6,23,10.8,24,11c-0.2,0-0.3,0-0.5,0c-15.8,10-23.9,19.4-37.4,34.1c-29.8,33.4-54.5,76.9-56.2,81.1c-0.1,0-0.2,0-0.2,0
			c-1-7.3-4.1-53.4-4.1-70.1C442.5,272.4,456.2,212.2,460.1,196.6z"/>
		<path id="biceps_brachii" fill-rule="evenodd" clip-rule="evenodd" fill="none" d="M418.1,445.7c0,0-3.8,8.5-4.3,24
			c-0.5,14.9,1.2,21.6,1.2,21.6s11.1,29.5,34.1,66c19.9,31.6,48.7,64.4,52.1,77.8c2.4,7.9,30.5,32.5,36.5,37
			c6.3,4.7-2.4,10.6-2.4,10.6l-24.5-30.2c0,0,8.2,14.8,10.3,22.8c2.1,8-5.5,4.3-5.5,4.3s3-13-18-39.8c-4-5.1-19.8-17.7-33.2-31.4
			c-16.2-16.6-23.6-25.6-35-42.1c-10.1-14.5-25.6-41.9-18.5-73.9c-3.9-25.4,1-45.4,1-45.4L418.1,445.7z"/>
		<path id="Rectus_Abdominus" fill-rule="evenodd" clip-rule="evenodd" fill="none" d="M462.7,531.4c11.1,13.5,59.8,50.7,120,60.7
			c34.7,5.8,129.7-8.9,148.6-16.1c18.8-7.2,147.7-65.9,163.2-74.6c15.5-8.8,179.7-95.4,204.2-96.2c24.5-0.9-3.5-9.5-10.1-13
			c-6.6-3.5-48.5,4.3-71.5,14.2c-23,9.9-124.3,50.5-154.1,67.4c-29.7,16.9-58.5,46.2-142.1,56.2c-27.2,3.2-46.7,1.1-97.2,7
			c-27.1,3.1-68.4,19.2-98.6,11.3c-30.2-7.9-74.6-38.6-74.6-38.6S451.6,517.8,462.7,531.4z"/>
		<path id="deltoid" fill-rule="evenodd" clip-rule="evenodd" fill="none" d="M502.3,304.6c0.6,5.2,1.3,10.4,1.9,15.6
			c-0.6-3.6,11.5,74.4,0,125.3c-18.6,82-47.9,99.8-54.5,105.1c-0.2-0.2-0.5-0.3-0.7-0.5c-1.6-4.1-5-7.1-6.5-11.5c-0.1,0-0.2,0-0.2,0
			c-2.4,7.1-4.8,14.2-7.2,21.4c-17.1-19.4-15.2-32.3-15.4-33.8c-2.3-12.8-2.2-26-4.3-40.1c-0.8-5.1-2-26.4-0.5-31
			c13.6-19.8,18.3-45.2,14.9-40.8c6.3-8,1.5-2.6,4.8-5.8c5.4-11.9,10.3-25.9,17.8-36.2c3.8-4,7.5-8,11.3-12
			c8.5-10.9,16.2-22.3,24.2-33.8C492.7,319.1,497.5,311.8,502.3,304.6z"/>
		<path id="flexor_carpi_ulnaris" fill-rule="evenodd" clip-rule="evenodd" fill="none" d="M566.4,637.4c1.8,3.3,0.3,9.2,1,13.4
			c0.6,11.7,2.4,63.1,2.4,76.8c0.4,26,0.8,52,1.2,78c0.4,10.6,0.8,21.3,1.2,31.9c0.4,7,1.7,29.6,4.7,45.6c1.4,7.6-4.7,12.2-5.4,10.1
			c-1.1-3.4-2.2-6.7-3.4-10.1c-0.2-1.3-7.5-61.4-8.9-80.6c-1-11.9-1.9-23.8-2.9-35.8c-0.3-3.2-4.8-67.1-10.6-97
			C548.2,660.1,561.3,645.5,566.4,637.4z"/>
		<path id="ulnaris_lateralis" fill-rule="evenodd" clip-rule="evenodd" fill="none" d="M538.1,638.9c2.7,1.8,3.5,7.5,4.8,10.8
			c4.1,10.6,4.1,20.6,6.7,33.1c5.2,25,8.4,61.2,3.6,87.6c3,52.4,6.6,121.5,5.8,103.7c1.3,8,2.1,19.6,0.7,28.3
			c-1,6.3,0.2,12.4-2.4,16.8c-0.2,0-0.5,0-0.7,0c-4.4-7.9-1.7-20.7-3.4-31.4c-1.3-17.1-2.6-34.2-3.8-51.4
			c-2.4-27.9-5.6-73.2-5.3-67.9c-1.8-6.8-4.3-14.4-6-22.1c-3.9-24.8-6.4-92.1-5.5-95.5C533.4,647.5,537.1,643.9,538.1,638.9z"/>
		<path id="extensor_digitorum_communis" fill-rule="evenodd" clip-rule="evenodd" fill="none" d="M501.4,1020
			c0.2-14.1,17.8-25.6,27.4-31.2c4.4-2.1,8.8-4.2,13.2-6.2c6.3-5.4,5.3-20.1,5-31.2c-0.6-5.1-1.1-10.2-1.7-15.4
			c-1.4,11.8,0.5,30.7-4.3,38.6c-3.3,5.4-12.4,6.9-18,10.1c-3.6,2-7.7,5.9-10.3,9.1c-3.3,4.1-17.3,22.1-21.4,23
			c-0.2-0.2-0.3-0.3-0.5-0.5c0.3-4.4,4.3-6.9,6.5-9.6c4.3-5.4,8.6-10.7,13-16.1c2.2-3,4.3-7.4,7.4-9.4c3.2-1.2,6.4-2.4,9.6-3.6
			c8-3.4,10-9,13-17.5c0.9-2.6,3.3-8.1,2.2-11.3c-0.5,10.3-5.7,21.6-13.4,25c-4.5,2-9.9,2.8-13.7,5.5c-4.5,5.5-9,11-13.4,16.6
			c-3,3.8-10.9,14.9-17,13.9c0.1-0.3,0.2-0.6,0.2-1c2.6-2.6,5.1-5.1,7.7-7.7c4.9-5.7,18.5-24.9,21.1-26.6c4.5-2.9,13.4-1.1,17.8-4.1
			c3.3-2.3,8.4-25.8,7.9-34.6c-0.2,10.7-5.2,30.8-11.8,34.6c-2.4,1.4-5.9-0.2-9.4,0.5c-2.6,0.5-5.3,2.2-7.2,3.6
			c-2.1,2.4-4.2,4.8-6.2,7.2c-5.3,6.6-11.5,12.6-18.7,17.3c-0.6-0.3-1.3-0.6-1.9-1c0-0.4,0-0.8,0-1.2c3.7-5.6,10.8-8.6,14.9-13.9
			c3-3.8,4.7-9.9,8.6-12.7c5.3-3.7,13.5-3.1,18.2-4.1c4-0.9,8.8-19.9,10.3-28.1c2.4-13.1,0.3-32.8-1.7-44.6
			c-1.3-12.6-2.6-25.3-3.8-37.9c-1.7-18.1-5.7-67.8-7-80.9c-4-24.1-4.8-42.8-8.4-64.3c0.3,4.2-4-36.5-0.7-56.9
			c0.8-4.8,3.5-14.1,10.3-12.7c9.3,1.9,7.6,15.1,9.1,25c1.6,10.3,1.4,31.1-0.2,41.3c-1,15-1.9,29.9-2.9,44.9
			c-3,18.3-3.3,38.9-0.2,58.1c1,13.8,1.9,27.5,2.9,41.3c2.8,16.6,5,31.6,8.9,47.3c5,20.2,11.3,45,6.5,68.9c-0.7,4.3-1.4,8.6-2.2,13
			c-4.4,11-17.7,9.5-26.6,15.8c-8.1,5.7-11.3,16.5-17.8,23.8C502.2,1020,501.8,1020,501.4,1020z"/>
		<path id="Tensor_fascia_latae" fill-rule="evenodd" clip-rule="evenodd" fill="none" d="M989.8,311.3c19-0.4,30,7.8,41.3,14.9
			c28.8,18.1,70.4,52.1,71,54.2c-17.2,23.9-52.5,49.6-55.9,52.3c-0.2-0.2-0.5-0.3-0.7-0.5c0.5,1.3-4-17.8-7-27.1
			c-7.6-24.1-18-45.7-31.4-64.1c-15.7-18.9-21.2-24.3-19.9-27.8C987.8,311.9,988.5,311.9,989.8,311.3z"/>
		<path id="Biceps_femoris" fill-rule="evenodd" clip-rule="evenodd" fill="none" d="M1169.3,357.6c4.3,0.6,14.6,5.6,21.1,28.1
			c2.4,8.2,0.8,15.9,3.1,30.5c2.7,44.5-1.4,185.8-1.4,204.7c6,37.4,9.3,74,16.3,110.4c2.8,14.3-7.1,40.1-11.5,51.4
			c-2.2,5.6-3.7,13.2-8.2,16.6c-0.1,0-0.2,0-0.2,0c-3.4-7.8-12.5-16-17.8-22.6c-13.7-17.2-30.1-31.9-43-49.9
			c-29-40.6-56.9-81.1-75.4-132.5c-1-4-23.1-94.4-25-120.7c0.1,0.3-12.8-22.1-0.5-42.2c16.7-27.4,57.3-54.4,91.4-64.8
			C1135.5,361.3,1170.5,357.5,1169.3,357.6z"/>
		<path id="gastrocnemius" fill-rule="evenodd" clip-rule="evenodd" fill="none" d="M1122.7,604.3c16.4-0.2,27.5,8.9,36.7,16.3
			c25.5,20.4,36.8,58.6,46.1,95c4.4,17.1,5.3,35.8,13,49c14.6,25.1,32.5,46.6,49.4,69.1c3.5,4.7,8.1,12,4.8,19.9
			c-0.7,1.6-1.1,3-2.9,2.6c-2.8-1.2-8.1-14.9-10.1-18.2c-9.3-15.6-18.5-31.4-28.8-46.1c-6-8.6-12.5-16.9-19-25
			c-2.8-2.6-5.6-5.1-8.4-7.7c-5.7-5.7-11.1-12.1-15.8-18.7c-14.6-20.4-25.9-42.8-38.9-65c-6.5-12-13-24-19.4-36
			C1127.2,627.8,1125,616.1,1122.7,604.3z"/>
		<path id="extensor_digitorum_longus" fill-rule="evenodd" clip-rule="evenodd" fill="none" d="M1088.2,640.1
			c9.9,0.1,17.4,13.4,21.8,19.7c14.6,20.7,25.6,43.6,38.4,66.5c9.1,18.1,18.2,36.2,27.4,54.2c10.5,13.9,21,27.8,31.4,41.8
			c4.4,4.9,8.8,9.8,13.2,14.6c9.2,11.9,17.9,25.3,24.5,39.6c2.7,5.8,3.7,12.5,5.5,19.2c4.4,16.6,7.5,35,12.5,51.8
			c5,17,5.3,41,1.4,58.8c-1.6,7.6-0.6,13.6-4.6,18.7c-6.8,8.7-22.8,8.4-29.5,17c-3.5,4.4-11.6,24.9-15.8,25.9
			c-0.1-0.1-0.2-0.2-0.2-0.2c0.2-18,18.2-31.9,30-38.9c3.8-2.2,10.1-3.5,13-6.7c9.5-10.6,3.9-39.7,3.6-55.4
			c-0.2,0.1-0.3,0.2-0.5,0.2c0.1,11.8,0.5,38.7-3.8,44.9c-4.3,6.1-14.3,7-20.9,11c-2.8,2.5-5.6,5-8.4,7.4
			c-5,6.2-10.3,12.3-15.1,18.5c-2.9,3.7-5.7,8.5-9.8,10.8c-0.2-0.1-0.5-0.2-0.7-0.2c-1.3-4.3,8.1-13.2,10.6-16.6
			c5.8-8,11.7-16,17.5-24c5.3-2.1,10.6-4.2,15.8-6.2c6-3.6,7.6-10.3,9.8-17.8c0.8-2.7,3.6-9.7,2.2-13c-0.5,11.9-5.9,23.8-13.9,28.6
			c-5.8,2.3-11.7,4.6-17.5,7c-4.5,3.2-11.7,14.4-15.4,19.2c-3.3,4.3-12.8,17.9-19.7,16.8c-0.1-0.4-0.2-0.8-0.2-1.2
			c8.5-7.2,16.6-16.8,23-25.9c2.9-4.3,5.8-8.6,8.6-13c4-5,14.6-2,20.9-5c8.7-4.2,10.6-26.6,10.8-39.8c-0.2,0.1-0.3,0.2-0.5,0.2
			c0.1,11.5-5.7,33.1-12.5,38.2c-3.5,2.5-11.4,0.7-15.6,2.6c-6.5,3.1-11,8.9-15.8,13.7c-3.4,3.4-17.4,19.8-22.6,16.3
			c0.1-0.6,0.2-1.1,0.2-1.7c1.8-4.2,8.7-7.3,12.2-10.1c7.1-5.6,11.1-18.1,19.2-21.6c5.7-2.5,17.7-1.3,21.8-5.5
			c4.7-4.7,5.4-13,7.2-20.6c5.2-22.5,2.1-53.2-2.4-74.6c-1.2-7.8-2.4-15.5-3.6-23.3c-8.5-28.1-29-46.3-45.8-66.2
			c-9.4-11.2-17.4-23.2-26.2-35c-5.5-6.4-11-12.8-16.6-19.2c-14.6-19.3-29.3-38.6-43.9-57.8c-9.2-12.6-19.7-25.1-25.4-40.8
			c-2.1-5.6-5.3-15.8-1-20.4C1084.2,641,1086.2,641,1088.2,640.1z"/>
		
			<image overflow="visible" width="6029" height="4913" xlink:href="VECTORS_SUPERFICIAL_MUSCLES.png"  transform="matrix(0.24 0 0 0.24 -1.421255e-03 -1.208173e-03)">
		</image>
	</g>
</svg>
