<?xml version="1.0" encoding="utf-8"?>
<!-- Generator: Adobe Illustrator 18.0.0, SVG Export Plug-In . SVG Version: 6.00 Build 0)  -->
<!DOCTYPE svg PUBLIC "-//W3C//DTD SVG 1.1//EN" "http://www.w3.org/Graphics/SVG/1.1/DTD/svg11.dtd" [
	<!ENTITY ns_extend "http://ns.adobe.com/Extensibility/1.0/">
	<!ENTITY ns_ai "http://ns.adobe.com/AdobeIllustrator/10.0/">
	<!ENTITY ns_graphs "http://ns.adobe.com/Graphs/1.0/">
	<!ENTITY ns_vars "http://ns.adobe.com/Variables/1.0/">
	<!ENTITY ns_imrep "http://ns.adobe.com/ImageReplacement/1.0/">
	<!ENTITY ns_sfw "http://ns.adobe.com/SaveForWeb/1.0/">
	<!ENTITY ns_custom "http://ns.adobe.com/GenericCustomNamespace/1.0/">
	<!ENTITY ns_adobe_xpath "http://ns.adobe.com/XPath/1.0/">
]>
<svg version="1.1" id="Layer_1" xmlns:x="&ns_extend;" xmlns:i="&ns_ai;" xmlns:graph="&ns_graphs;"
	 xmlns="http://www.w3.org/2000/svg" xmlns:xlink="http://www.w3.org/1999/xlink" x="0px" y="0px" viewBox="0 0 1407.6 1201.7"
	 enable-background="new 0 0 1407.6 1201.7" xml:space="preserve">
	<g i:extraneous="self">

			<image overflow="visible" width="5865" height="5007" xlink:href="VECTORS_ORGANS.png"  transform="matrix(0.24 0 0 0.24 0 -1)">
		</image>
		<path id="outline" fill-rule="evenodd" clip-rule="evenodd" fill="none" d="M1213.6,734.5c-58.5-58-67.4-120.6-68-151
			c-0.7-33.5-1.2-78.1-4-109c0.1,20.1,0.8,37.7-1,95c-1.9,60.6-2.2,131.6,25,176c11,16.7,29,41.3,40,58c6.4,9,16.9,20,20,32
			c2.4,9.6-4.4,72.9-7,89c1.3,31.3-3.3,71-2.8,102.4c-10,9.1-20,20.7-36,29.5c-6.4,3.5-12.7,12.5-20.4,14c-8,1.5-17.4-4.6-26.8-6.9
			c-0.5-0.3-18.6,5.9-25-11c-17.8-3.6-12.5-19.7-13-20c-1.5-6.5,14.3-13.3,22-22c7.4-8.4,6.6-18.6,13-20c5.3-3.7,25.4,0.3,29-5
			c13.2-19.6-0.7-45.4-1-68c-0.9-73.4-58.9-134.5-96-179c7.3,8.8-49.1-44.5-79-115c-13.3-31.2-16.2-62.2-24-96c-0.3,0-33.7,19-34,19
			c-19.1,6.3-30.5,0.5-38-16c2.6-8.2,5.8-12.7,9-20c-9-15.3-79.8,3.2-95,9c-37.9,14.4-72.7,26.3-107,43c-27,13.2-70.1,33.4-61,28
			c-56.6,33.8-94.5,22.6-103,25c1.3,21.5-18.3,50.9-21,68c-0.3,55,3.3,86,3,141c1.3,21.8,17.1,56.8,12,72c-2.1,6.4-13.1,15.1-17,30
			c-4.7,18.2-2.9,43.7-12,64c-5.9,13.1-22.1,10.8-27,16c-12.1,12.8-11.4,17.5-25,16c-10.7-1.2-20.1,7.8-30.4-5.2
			c-15.2-1.8-22.9-23.4-12.6-28.8c10.3-5.4,19.1-21,28-29c9.2-8.3,22.2-8.8,28-21c10.1-21.2,4.5-11.6,5-43
			c0.8-46.2-16.1-89.2-24-147c-7.9-58.2-0.4-87.7-24-115c-35.4-41-55-69-55-69s-16.1-36.7-28-61c-21.2-43.3-18.5-67.6-25-102
			c0-0.7,0-1.3,0-2c-5.1-18.9-21.3-36.8-30-53c-6-14.7-12-29.3-18-44c-14.5-22.3-40.7-59.3-68.9-65.1c-24.1-5-73.3,5.6-75.1-12.2
			c-8,1.7-14.2,5.7-30.2,2.2C72,223,20.9,158.9,43.9,141.4c7.4-4,65.9-35.9,80.4-43.9c0.8-9.1,7.5-16.1,11.3-23
			c21-6.4,40-16.1,58-25c-0.6,0.3,63.9-46.6,122,35c16.8,23.6,43,41.3,60,65c12.2,17,39.4,58.9,52,72c23.1,24.1,48,31,48,31
			s77.1,27,181,23c29.7-5,62.3-9,92-14c82.4-10.6,133.6-10.6,153-12c36.8,2.4,81.1,0.3,113,11c32.4,10.9,67.3,24.4,95,43
			c21.2,14.2,38.4,31.6,51,54c34.8,61.9,4.5,144.3,15,252c1.6,16,9.7,32.5,16,49c19.8,51.5,54.2,92.2,103,114
			C1317.6,791.7,1270.1,790.6,1213.6,734.5z"/>
		<path id="brain" fill-rule="evenodd" clip-rule="evenodd" fill="none" d="M258.5,73.9c6.1,2.3,10.1,9.8,7.2,17
			c5.1,1.8,3.9,14.8,0.2,17.5c-2.5,0.9-5,1.8-7.4,2.6c-0.8-0.9,7.2,5.6,9.1,9.8c-1.9,0.6-5.3,3.5-6.7,2.6c-3.1-1.9-7-6.6-7.9-10.6
			c-5.7-1-8.7-5-12.5-7.9c-8.4,3.9-22,1.6-29.5-1.7c-1.4-1-2.9-1.9-4.3-2.9c-6.4-1.2-31.2-1.8-29-16.1c4.2-6.2,29.3-6.7,47-9.8
			C235,74,254.2,72.3,258.5,73.9z"/>
		<path id="lungs" fill-rule="evenodd" clip-rule="evenodd" fill="none" d="M628.1,340.6c3.6,11.1-11.1,49.5-12,52.3
			c-16.7,41.8-35.9,98.5-56.2,118.3c-8.9,16-8.9,23.6-22.6,31.4c-19.5,15.1-84.1-14.5-128.4-31.2c-15.7-8-29-19.8-43.7-29
			c-8.4-4.9-15.6-12.4-26.9-13.7c-13.6-6-16.6-17.8-11.3-28.6c2.8-5.8,10.9-7.7,16.3-11c1.8-1.1,52.3-41.2,80.4-54.2
			c23.2-10.8,53.8-17.7,81.6-23.3c18.7-3.7,39.2-1.1,59-3.8C591.9,348,613.8,335.7,628.1,340.6z"/>
		<path id="heart" fill-rule="evenodd" clip-rule="evenodd" fill="none" d="M379,454.8c1,3.4,1.9,6.7,2.9,10.1
			c1.9,4.4,13.3,16.7,20.9,13.7c1-1.6,2.1-3.2,3.1-4.8c3.5-5.1,9.1-9.4,15.4-11.8c12.1-4.5,27.1,0.5,36.5,4.1
			c3.6,1.4,7.7,1.5,11.8,2.6c8.9,2.4,21.1,6.7,26.2,13.2c7,8.9,7.9,21.8,12,33.8c3.9,11.3,14.2,17.9,7.4,33.1
			c-5.7,12.7-30.6,13.7-46.3,9.1c-9-2.6-18.4-2.9-26.2-6.2c-6.9-3-10.7-9.2-16.8-12.7c-9.2-5.3-17.8-7.7-23.8-16.1
			c-2.3-3.2-4.9-7.8-6-11.8c-0.3-2.9-0.6-5.8-1-8.6c-14.7-2.9-26.2-13-32.9-24.2c-1.9-3.1-5.8-9.6-5-13.9
			C364.4,461.2,371.7,458,379,454.8z"/>
		<path id="liver" fill-rule="evenodd" clip-rule="evenodd" fill="none" d="M599,349.4c27.2-0.1,36.1,16.7,45.6,34.6
			c8.7,16.4,17.2,32.1,21.4,53.3c4,20.6-6.2,47.6-10.3,63.8c-1.9,7.7-1.7,15.8-4.1,22.8c-6.7,19.9-20.1,27.8-42.5,32.4
			c-3.4,0.7-19.4,1.9-23.5,0.7c-13-3.7-26.7-3.4-37.2-8.9c-22.6-11.7-37.5-47.2-44.4-74.9c-3.3-13.1-2.7-31.3,1.9-42.2
			c4.2-9.8,10.9-16.8,16.8-24.7c15.6-20.7,34-39.8,58.3-51.6c3.8-1.4,7.5-2.9,11.3-4.3C594.6,350.1,596.8,349.8,599,349.4z"/>
		<path id="spleen" fill-rule="evenodd" clip-rule="evenodd" fill="none" d="M661.2,339.4c5.2,1.1,11.8,0.9,16.3,3.8
			c5.1,3.3,9.3,8.3,13,13c9.5,12.1,20.4,21.8,25,39.1c2.2,8.6,1.7,21.1,1,27.8c-1.2,10.4,2.6,19.3,0.5,29
			c-3.6,16.6-19.8,25.6-37.7,27.8c-7.5,1-20.1,2.2-27.6-0.2c-16.9-5.6-27.5-21.4-36-35.5c-5.2-8.6-13-21.9-9.4-36.5
			c5.8-23.5,24.2-52.7,41.8-64.3C651.9,340.8,656.7,341.2,661.2,339.4z"/>
		<path id="kidney" fill-rule="evenodd" clip-rule="evenodd" fill="none" d="M705.6,328.1c19.2-0.4,36.1,6.5,48,14.2
			c6,3.9,12.1,6.9,12.7,15.4c0.7,9.1-7.5,13-12.2,17c-8.2,6.9-16.8,13.8-28.8,16.8c-7.9,2-17,1-25.7,2.4c-7.3,1.2-16.8,2.9-23.8,0
			c-9.9-4.1-22.9-25.2-14.6-38.9c6.6-10.8,21.3-19.5,33.6-24.5C698.4,329.7,702,328.9,705.6,328.1z"/>
	</g>

</svg>
